<mxfile host="app.diagrams.net" modified="2023-09-08T15:39:25.730Z" agent="Mozilla/5.0 (Windows NT 10.0; Win64; x64) AppleWebKit/537.36 (KHTML, like Gecko) Chrome/116.0.0.0 Safari/537.36" version="21.7.3" etag="ORECxO3IVb_qxqfKiDpX" type="github">
  <diagram name="PÃ¡gina-1" id="8P1pUNdXLcDxJBc7AVKL">
    <mxGraphModel>
      <root>
        <mxCell id="0" />
        <mxCell id="1" parent="0" />
      </root>
    </mxGraphModel>
  </diagram>
</mxfile>
